<svg width="51" height="45" viewBox="0 0 51 45" fill="none" xmlns="http://www.w3.org/2000/svg">
<path d="M18.1605 20.5137L8.78345 17.7363C7.69814 17.4199 6.94277 16.3916 6.94277 15.249C6.94277 13.8164 8.08885 12.6562 9.50409 12.6562H15.2605C16.3198 12.6562 17.3617 12.9814 18.2299 13.5791C18.7595 13.9395 19.4715 13.8516 19.923 13.4033L22.9445 10.415C23.5609 9.80859 23.4741 8.79785 22.7882 8.26172C20.661 6.57422 18.0042 5.63379 15.2779 5.625V1.40625C15.2779 0.632812 14.6528 0 13.8887 0H11.1103C10.3463 0 9.72115 0.632812 9.72115 1.40625V5.625H9.50409C3.97339 5.625 -0.472014 10.4326 0.040249 16.1367C0.404911 20.1885 3.46112 23.4844 7.31612 24.627L16.2156 27.2637C17.3009 27.5889 18.0563 28.6084 18.0563 29.751C18.0563 31.1836 16.9102 32.3438 15.495 32.3438H9.73851C8.67926 32.3438 7.63737 32.0186 6.76912 31.4209C6.2395 31.0605 5.52754 31.1484 5.07605 31.5967L2.05457 34.585C1.43812 35.1914 1.52494 36.2021 2.21085 36.7383C4.33805 38.4258 6.99487 39.3662 9.72115 39.375V43.5938C9.72115 44.3672 10.3463 45 11.1103 45H13.8887C14.6528 45 15.2779 44.3672 15.2779 43.5938V39.3574C19.3239 39.2783 23.1181 36.8438 24.4552 32.9678C26.3219 27.5537 23.1876 21.999 18.1605 20.5137Z" fill="#9D9D9D"/>
<path d="M31.1605 20.5137L21.7834 17.7363C20.6981 17.4199 19.9428 16.3916 19.9428 15.249C19.9428 13.8164 21.0889 12.6562 22.5041 12.6562H28.2605C29.3198 12.6562 30.3617 12.9814 31.2299 13.5791C31.7595 13.9395 32.4715 13.8516 32.923 13.4033L35.9445 10.415C36.5609 9.80859 36.4741 8.79785 35.7882 8.26172C33.661 6.57422 31.0042 5.63379 28.2779 5.625V1.40625C28.2779 0.632812 27.6528 0 26.8887 0H24.1103C23.3463 0 22.7211 0.632812 22.7211 1.40625V5.625H22.5041C16.9734 5.625 12.528 10.4326 13.0402 16.1367C13.4049 20.1885 16.4611 23.4844 20.3161 24.627L29.2156 27.2637C30.3009 27.5889 31.0563 28.6084 31.0563 29.751C31.0563 31.1836 29.9102 32.3438 28.495 32.3438H22.7385C21.6793 32.3438 20.6374 32.0186 19.7691 31.4209C19.2395 31.0605 18.5275 31.1484 18.0761 31.5967L15.0546 34.585C14.4381 35.1914 14.5249 36.2021 15.2109 36.7383C17.338 38.4258 19.9949 39.3662 22.7211 39.375V43.5938C22.7211 44.3672 23.3463 45 24.1103 45H26.8887C27.6528 45 28.2779 44.3672 28.2779 43.5938V39.3574C32.3239 39.2783 36.1181 36.8438 37.4552 32.9678C39.3219 27.5537 36.1876 21.999 31.1605 20.5137Z" fill="#BEBEBE"/>
<path d="M44.1605 20.5137L34.7834 17.7363C33.6981 17.4199 32.9428 16.3916 32.9428 15.249C32.9428 13.8164 34.0889 12.6562 35.5041 12.6562H41.2605C42.3198 12.6562 43.3617 12.9814 44.2299 13.5791C44.7595 13.9395 45.4715 13.8516 45.923 13.4033L48.9445 10.415C49.5609 9.80859 49.4741 8.79785 48.7882 8.26172C46.661 6.57422 44.0042 5.63379 41.2779 5.625V1.40625C41.2779 0.632812 40.6528 0 39.8887 0H37.1103C36.3463 0 35.7211 0.632812 35.7211 1.40625V5.625H35.5041C29.9734 5.625 25.528 10.4326 26.0402 16.1367C26.4049 20.1885 29.4611 23.4844 33.3161 24.627L42.2156 27.2637C43.3009 27.5889 44.0563 28.6084 44.0563 29.751C44.0563 31.1836 42.9102 32.3438 41.495 32.3438H35.7385C34.6793 32.3438 33.6374 32.0186 32.7691 31.4209C32.2395 31.0605 31.5275 31.1484 31.0761 31.5967L28.0546 34.585C27.4381 35.1914 27.5249 36.2021 28.2109 36.7383C30.338 38.4258 32.9949 39.3662 35.7211 39.375V43.5938C35.7211 44.3672 36.3463 45 37.1103 45H39.8887C40.6528 45 41.2779 44.3672 41.2779 43.5938V39.3574C45.3239 39.2783 49.1181 36.8438 50.4552 32.9678C52.3219 27.5537 49.1876 21.999 44.1605 20.5137Z" fill="white"/>
</svg>
